<svg width="13" height="14" viewBox="0 0 13 14" fill="none" xmlns="http://www.w3.org/2000/svg">
<g clip-path="url(#clip0_20_1392)">
<path d="M0 1.3125C0 1.19647 0.0428012 1.08519 0.118988 1.00314C0.195175 0.921094 0.298506 0.875 0.40625 0.875H1.625C1.71562 0.875027 1.80363 0.907682 1.87503 0.967772C1.94643 1.02786 1.99713 1.11194 2.01906 1.20662L2.34812 2.625H11.7812C11.8409 2.62506 11.8998 2.63926 11.9538 2.66661C12.0078 2.69395 12.0555 2.73376 12.0936 2.7832C12.1316 2.83265 12.1592 2.89052 12.1741 2.9527C12.1891 3.01489 12.1912 3.07986 12.1802 3.143L10.9614 10.143C10.944 10.2433 10.8946 10.3338 10.8218 10.399C10.7489 10.4642 10.6572 10.4999 10.5625 10.5H3.25C3.15529 10.4999 3.06358 10.4642 2.99074 10.399C2.9179 10.3338 2.86849 10.2433 2.85106 10.143L1.63312 3.15613L1.30812 1.75H0.40625C0.298506 1.75 0.195175 1.70391 0.118988 1.62186C0.0428012 1.53981 0 1.42853 0 1.3125ZM2.52037 3.5L3.58719 9.625H10.2253L11.2921 3.5H2.52037ZM4.0625 10.5C3.63152 10.5 3.2182 10.6844 2.91345 11.0126C2.6087 11.3408 2.4375 11.7859 2.4375 12.25C2.4375 12.7141 2.6087 13.1592 2.91345 13.4874C3.2182 13.8156 3.63152 14 4.0625 14C4.49348 14 4.9068 13.8156 5.21155 13.4874C5.51629 13.1592 5.6875 12.7141 5.6875 12.25C5.6875 11.7859 5.51629 11.3408 5.21155 11.0126C4.9068 10.6844 4.49348 10.5 4.0625 10.5ZM9.75 10.5C9.31902 10.5 8.9057 10.6844 8.60095 11.0126C8.2962 11.3408 8.125 11.7859 8.125 12.25C8.125 12.7141 8.2962 13.1592 8.60095 13.4874C8.9057 13.8156 9.31902 14 9.75 14C10.181 14 10.5943 13.8156 10.899 13.4874C11.2038 13.1592 11.375 12.7141 11.375 12.25C11.375 11.7859 11.2038 11.3408 10.899 11.0126C10.5943 10.6844 10.181 10.5 9.75 10.5ZM4.0625 11.375C4.27799 11.375 4.48465 11.4672 4.63702 11.6313C4.7894 11.7954 4.875 12.0179 4.875 12.25C4.875 12.4821 4.7894 12.7046 4.63702 12.8687C4.48465 13.0328 4.27799 13.125 4.0625 13.125C3.84701 13.125 3.64035 13.0328 3.48798 12.8687C3.3356 12.7046 3.25 12.4821 3.25 12.25C3.25 12.0179 3.3356 11.7954 3.48798 11.6313C3.64035 11.4672 3.84701 11.375 4.0625 11.375ZM9.75 11.375C9.96549 11.375 10.1721 11.4672 10.3245 11.6313C10.4769 11.7954 10.5625 12.0179 10.5625 12.25C10.5625 12.4821 10.4769 12.7046 10.3245 12.8687C10.1721 13.0328 9.96549 13.125 9.75 13.125C9.53451 13.125 9.32785 13.0328 9.17548 12.8687C9.0231 12.7046 8.9375 12.4821 8.9375 12.25C8.9375 12.0179 9.0231 11.7954 9.17548 11.6313C9.32785 11.4672 9.53451 11.375 9.75 11.375Z" fill="#6F6F6F"/>
</g>
<defs>
<clipPath id="clip0_20_1392">
<rect width="13" height="14" fill="white"/>
</clipPath>
</defs>
</svg>
