<svg width="547" height="484" viewBox="0 0 547 484" fill="none" xmlns="http://www.w3.org/2000/svg">
<path d="M202.346 391.527L235.119 377.778L230.476 352.874L249.923 369.065L269.219 349.769L274.435 375.306L309.921 369.065L291.771 397.888L301.479 421.677L263.43 402.109L249.682 435.154L240.697 399.185L202.346 391.527Z" fill="#FF4320"/>
<path d="M253.782 431.958C253.752 431.958 253.752 431.958 253.722 431.958C253.541 431.928 253.39 431.777 253.33 431.596L247.269 402.893L211.361 422.129C211.18 422.219 210.969 422.189 210.818 422.038C210.667 421.888 210.637 421.677 210.758 421.496L230.084 388.15L230.868 388.602L212.356 420.561L247.39 401.778C247.511 401.717 247.661 401.717 247.782 401.778C247.903 401.838 247.993 401.958 248.023 402.079L253.963 430.119L270.786 397.195C270.907 396.984 271.148 396.893 271.389 396.984L298.193 409.134L293.128 383.959C293.097 383.808 293.128 383.688 293.218 383.567C293.308 383.446 293.459 383.416 293.58 383.416L315.74 385.044L315.68 385.949L294.123 384.351L299.248 409.797C299.278 409.978 299.218 410.129 299.097 410.25C298.977 410.37 298.796 410.37 298.615 410.31L271.389 397.979L254.204 431.717C254.113 431.867 253.963 431.958 253.782 431.958Z" fill="#121127"/>
<path d="M61.2138 294.353L84.369 283.017L65.1936 279.248L61.2138 256.394L49.2443 283.017L29.7975 269.178L36.0386 288.986L16.8632 295.589L35.0436 301.077L31.305 325.98L48.7619 307.197L71.6758 314.523L61.2138 294.353Z" fill="#FF4320"/>
<path d="M23.9788 335.99C23.8582 335.99 23.7677 335.96 23.6773 335.87C23.5265 335.719 23.4964 335.508 23.5869 335.327L43.5763 297.971L14.3609 290.494C14.18 290.434 14.0293 290.283 14.0293 290.072C14.0293 289.861 14.1499 289.68 14.3308 289.62L47.7671 277.56L39.0538 246.083C38.9935 245.902 39.0839 245.691 39.2347 245.57C39.4156 245.45 39.6266 245.48 39.7774 245.601L64.5607 266.796L63.9577 267.489L40.3201 247.259L48.7319 277.71C48.7922 277.951 48.6716 278.163 48.4606 278.253L16.0192 289.951L44.3602 297.217C44.4808 297.248 44.6014 297.338 44.6617 297.459C44.722 297.579 44.722 297.73 44.6315 297.851L25.1546 334.272L54.4906 316.694L54.9428 317.478L24.22 335.9C24.1295 335.96 24.0391 335.99 23.9788 335.99Z" fill="#121127"/>
<path d="M510.057 30.1788L488.379 44.4096L495.073 49.3241C430.823 111.735 333.288 148.789 262.254 162.748L262.435 163.623C305.339 155.181 349.207 140.618 389.337 121.503C410.894 111.252 431.034 99.7952 449.214 87.4638C466.611 75.6752 482.289 63.0423 495.856 49.8366L503.726 55.5953L510.057 30.1788Z" fill="#121127"/>
<path d="M393.768 465.937C391.959 465.937 390.15 465.635 388.372 465.062C380.442 462.469 372.784 454.329 365.608 440.912C360.272 430.933 357.227 421.616 357.197 421.526L358.071 421.254C358.191 421.616 370.282 458.218 388.673 464.248C394.13 466.027 399.678 464.942 405.135 461.022C414.572 454.238 419.155 440.46 419.999 426.018C414.783 423.124 409.597 419.325 404.864 414.893C396.422 406.993 390.573 398.099 389.216 391.044C388.221 385.858 389.608 381.758 393.226 379.165C399.768 374.492 406.281 375.939 411.527 383.296C417.738 391.949 421.446 407.687 420.994 423.425C420.964 424.149 420.934 424.842 420.903 425.536C424.913 427.706 429.074 429.395 433.205 430.42C440.411 432.199 450.481 432.44 457.475 423.576C463.325 416.189 466.098 405.968 465.525 394.119C463.023 393.727 460.701 393.094 458.651 392.341C450.903 389.567 443.365 384.079 437.396 376.934C431.848 370.331 428.2 362.914 427.356 356.613C426.632 351.095 428.049 346.905 431.516 344.493C436.521 340.965 442.762 342.744 449.094 349.467C456.631 357.457 462.842 370.934 465.345 384.622C465.887 387.607 466.249 390.501 466.4 393.335C474.661 394.451 484.882 392.702 495.284 383.115C509.333 370.15 512.74 355.256 510.72 342.171C504.751 344.04 498.389 344.372 492.088 343.106C478.701 340.392 467.274 330.684 466.068 321.006C465.345 315.247 468.48 310.393 474.872 307.318C483.284 303.278 495.012 309.036 503.394 321.367C507.464 327.337 510.178 334.091 511.384 340.965C519.404 338.191 528.298 331.98 535.805 318.986L536.589 319.438C530.77 329.508 523.534 336.593 515.062 340.483C513.916 341.025 512.74 341.478 511.534 341.9C511.987 344.915 512.167 347.93 512.047 350.945C511.504 363.155 505.926 374.522 495.887 383.778C485.304 393.547 474.872 395.356 466.46 394.27C467.003 406.24 464.169 416.641 458.229 424.149C452.44 431.445 443.727 433.917 433.024 431.294C429.104 430.33 425.004 428.701 420.873 426.5C419.848 442.721 414.361 455.444 405.617 461.746C401.728 464.52 397.748 465.937 393.768 465.937ZM400.703 377.326C398.623 377.326 396.301 378.049 393.768 379.858C390.392 382.27 389.186 385.949 390.12 390.833C392.171 401.476 405.014 416.521 420.059 424.993C420.843 409.164 417.225 392.702 410.833 383.778C408.482 380.492 405.075 377.326 400.703 377.326ZM436.943 343.618C435.315 343.618 433.657 344.07 432.059 345.216C428.049 348.02 427.778 352.904 428.26 356.492C429.888 368.613 442.611 385.557 458.983 391.466C460.943 392.19 463.144 392.793 465.525 393.155C465.345 390.441 465.013 387.637 464.5 384.743C462.028 371.205 455.908 357.909 448.491 350.04C445.898 347.327 441.556 343.618 436.943 343.618ZM480.691 306.865C478.761 306.865 476.952 307.257 475.294 308.071C469.174 310.996 466.309 315.428 466.973 320.855C468.118 330.171 479.244 339.518 492.269 342.171C496.158 342.955 502.942 343.618 510.57 341.176C509.303 333.91 506.349 327.247 502.67 321.79C498.841 316.152 494.047 311.659 489.133 309.127C486.208 307.649 483.344 306.865 480.691 306.865Z" fill="#121127"/>
<path d="M535.684 334.634L534.78 334.573L535.715 320.011L521.906 328.121L521.454 327.337L535.986 318.775C536.137 318.684 536.318 318.684 536.438 318.775C536.589 318.865 536.649 319.016 536.649 319.197L535.684 334.634Z" fill="#121127"/>
<path d="M545.875 93.6747L505.354 96.3581L509.424 102.629L436.672 149.814L450.119 170.497L522.841 123.312L526.911 129.583L545.875 93.6747Z" fill="#90ECF4"/>
<path d="M444.27 167.06C444.24 167.06 444.21 167.06 444.179 167.06C444.059 167.03 443.968 166.969 443.908 166.849L430.491 146.166C430.341 145.955 430.401 145.684 430.612 145.533L502.972 98.5892L499.143 92.7099C499.052 92.5893 499.052 92.4084 499.113 92.2577C499.173 92.1069 499.324 92.0165 499.475 92.0165L539.996 89.3331C540.177 89.3331 540.328 89.3934 540.418 89.5442C540.509 89.6949 540.509 89.8457 540.448 89.9964L521.514 125.905C521.454 126.056 521.303 126.146 521.122 126.146C520.972 126.146 520.821 126.086 520.73 125.935L516.901 120.056L444.541 167C444.451 167.03 444.36 167.06 444.27 167.06ZM431.456 146.045L444.391 165.974L516.751 119.031C516.841 118.971 516.962 118.94 517.082 118.971C517.203 119.001 517.293 119.061 517.354 119.182L521.032 124.79L539.242 90.2678L500.319 92.8305L503.967 98.4686C504.027 98.559 504.057 98.6796 504.027 98.8002C503.997 98.9208 503.937 99.0113 503.816 99.0716L431.456 146.045Z" fill="#121127"/>
<path d="M121.604 402.953L81.0525 400.511L84.3087 407.235L6.25037 444.952L16.9536 467.143L95.0421 429.455L98.2983 436.179L121.604 402.953Z" fill="#90ECF4"/>
<path d="M11.6473 463.012C11.4664 463.012 11.3157 462.922 11.2252 462.771L0.491848 440.55C0.431548 440.43 0.431549 440.309 0.461699 440.219C0.491849 440.098 0.582297 440.008 0.702897 439.947L78.3693 402.441L75.3241 396.109C75.2638 395.959 75.2638 395.808 75.3543 395.657C75.4447 395.506 75.5955 395.446 75.7462 395.446L116.268 397.888C116.419 397.888 116.569 398.009 116.66 398.129C116.72 398.28 116.72 398.461 116.63 398.582L93.3237 431.837C93.2332 431.958 93.0825 432.048 92.9317 432.018C92.781 432.018 92.6302 431.897 92.5699 431.777L89.5248 425.445L11.8584 462.952C11.7981 462.982 11.7076 463.012 11.6473 463.012ZM1.5471 440.55L11.8885 461.957L89.5549 424.45C89.766 424.33 90.0373 424.45 90.1579 424.661L93.0825 430.691L115.484 398.732L76.5301 396.411L79.4547 402.441C79.5753 402.652 79.4547 402.923 79.2436 403.044L1.5471 440.55Z" fill="#121127"/>
<path d="M237.622 35.0028L197.161 31.6562L200.266 38.4701L121.333 74.3787L131.554 96.8104L210.487 60.9017L213.562 67.7156L237.622 35.0028Z" fill="#444BD3"/>
<path d="M125.403 92.0164C125.343 92.0164 125.283 92.0165 125.253 91.9863C125.132 91.9562 125.042 91.8657 125.012 91.7451L114.791 69.2834C114.7 69.0422 114.791 68.801 115.002 68.6804L193.512 32.9526L190.618 26.5608C190.558 26.4101 190.558 26.2593 190.648 26.1086C190.739 25.988 190.889 25.8975 191.07 25.9277L231.531 29.2743C231.682 29.2743 231.833 29.3949 231.893 29.5457C231.954 29.6964 231.954 29.8773 231.833 29.9979L207.773 62.7107C207.683 62.8313 207.532 62.9217 207.351 62.8916C207.2 62.8614 207.05 62.771 206.989 62.6202L204.095 56.2284L125.584 91.9562C125.524 91.9863 125.464 92.0164 125.403 92.0164ZM115.786 69.3437L125.615 90.9612L204.125 55.2335C204.246 55.1732 204.366 55.1732 204.457 55.2335C204.577 55.2636 204.668 55.3541 204.698 55.4747L207.472 61.565L230.627 30.1185L191.733 26.8925L194.507 32.9828C194.598 33.224 194.507 33.4652 194.296 33.5858L115.786 69.3437Z" fill="#121127"/>
<path d="M114.398 250.334L104.208 220.003L162.397 217.32L114.398 250.334Z" fill="#90ECF4"/>
<path d="M389.728 362.854L362.021 328.061L436.762 296.946L389.728 362.854Z" fill="#444BD3"/>
<path d="M348.604 33.9476L338.714 2.47097L398.713 0.903168L348.604 33.9476Z" fill="#FF4320"/>
<path d="M538.669 186.899L527.182 210.174L536.559 211.139C536.137 215.33 532.549 246.083 515.454 285.971C498.57 325.408 464.621 382.09 398.954 428.159C333.257 474.228 262.556 483.364 214.798 482.911C170.598 482.519 137.403 474.047 128.418 471.515C128.87 470.248 129.142 468.861 129.142 467.414C129.142 460.721 123.715 455.294 117.022 455.294C110.328 455.294 104.901 460.721 104.901 467.414C104.901 474.107 110.328 479.535 117.022 479.535C121.936 479.535 126.187 476.58 128.087 472.359C137.011 474.891 170.357 483.394 214.768 483.816C215.883 483.816 217.029 483.846 218.145 483.846C247.42 483.846 275.942 480.318 302.896 473.324C337.9 464.248 370.402 449.294 399.497 428.913C428.592 408.501 453.948 384.351 474.872 357.095C491.605 335.297 505.565 311.478 516.358 286.303C533.453 246.354 537.071 215.511 537.493 211.23L546.086 212.104L538.669 186.899Z" fill="#121127"/>
<path d="M222.516 262.394C222.516 262.394 227.552 277.499 232.858 282.112C236.325 280.755 289.359 260.133 289.359 260.133L342.122 239.691C342.122 239.691 358.161 149.784 337.298 142.88C320.263 137.241 301.932 140.558 282.123 179.663C262.314 218.737 246.938 255.279 222.516 262.394Z" fill="#444BD3"/>
<path d="M236.476 280.695V256.847V254.555C236.325 254.676 236.204 254.796 236.054 254.917V256.847V280.846C236.204 280.786 236.325 280.725 236.476 280.695Z" fill="white"/>
<path d="M262.224 256.846V218.857C262.073 219.129 261.953 219.37 261.802 219.641V256.846V270.836C261.953 270.776 262.073 270.716 262.224 270.685V256.846Z" fill="white"/>
<path d="M249.35 275.66V256.847V240.053C249.199 240.264 249.078 240.445 248.928 240.656V256.847V275.841C249.078 275.781 249.199 275.72 249.35 275.66Z" fill="white"/>
<path d="M275.098 256.847V193.652C274.947 193.923 274.827 194.225 274.676 194.496V256.847V265.831C274.827 265.771 274.947 265.711 275.098 265.681V256.847Z" fill="white"/>
<path d="M287.55 169.683V256.816V260.796C287.701 260.736 287.852 260.676 287.972 260.645V256.847V168.989C287.852 169.231 287.701 169.472 287.55 169.683Z" fill="white"/>
<path d="M223.18 264.294C223.3 264.625 223.451 265.017 223.602 265.439V262.062C223.451 262.123 223.33 262.153 223.18 262.183V264.294Z" fill="white"/>
<path d="M300.424 255.821L300.846 255.671V152.045C300.695 152.196 300.575 152.316 300.424 152.467V255.821Z" fill="white"/>
<path d="M339.046 240.867L339.468 240.716V143.995C339.318 143.905 339.197 143.814 339.046 143.724V240.867Z" fill="white"/>
<path d="M313.298 250.847L313.72 250.696V143.06C313.569 143.121 313.449 143.181 313.298 143.241V250.847Z" fill="white"/>
<path d="M326.172 245.842L326.594 245.691V140.769C326.444 140.769 326.323 140.769 326.172 140.739V245.842Z" fill="white"/>
<path d="M262.736 131C262.736 131 225.652 168.356 219.2 202.034C214.647 225.762 218.205 251.269 222.516 262.364C232.044 261.761 256.646 259.982 269.189 250.425C272.384 248.495 274.706 246.927 274.706 246.927C274.706 246.927 303.047 283.137 360.694 276.263C360.694 276.263 353.367 270.143 354.423 258.716C355.327 249.038 361.99 245.962 361.99 245.962C361.99 245.962 321.288 252.445 292.977 201.431C289.902 195.883 286.796 190.275 284.897 183.612C282.515 175.291 281.218 165.402 275.158 153.281C280.404 149.151 305.369 143.844 321.529 142.005C330.423 140.98 335.76 142.367 335.76 142.367L358.975 125.242L391.266 104.559L382.522 83.1524C382.522 83.1524 278.414 129.553 272.354 131.362C265.812 133.262 262.736 131 262.736 131Z" fill="#FF4320"/>
<path d="M347.006 277.137C347.247 277.137 347.458 277.137 347.699 277.137V272.525V259.53H354.393C354.393 259.289 354.423 259.078 354.453 258.836H347.699V245.842V245.329C347.458 245.299 347.247 245.239 347.006 245.209V245.842V258.836H334.011H321.016V245.842V233.963C320.775 233.812 320.564 233.631 320.323 233.48V245.842V258.836H307.328H294.334V245.842V232.847H307.328H319.449C319.147 232.636 318.846 232.395 318.544 232.154H307.328H294.334V219.159V206.164H295.781C295.63 205.923 295.51 205.712 295.359 205.471H294.334V203.752C294.093 203.36 293.882 202.968 293.64 202.546V205.471H280.646H267.651V192.476V179.482H280.646H283.872C283.811 179.24 283.751 179.029 283.691 178.788H280.646H267.651V165.794V152.799H276.033C276.395 152.558 276.817 152.347 277.299 152.105H267.651V139.111V132.176C267.41 132.176 267.169 132.176 266.958 132.176V139.111V152.105H253.903H244.797C244.616 152.347 244.436 152.558 244.285 152.799H253.933H266.927V165.794V178.758H253.903H240.908V165.763V157.352C240.667 157.683 240.456 157.985 240.215 158.316V165.763V178.758H227.672C227.552 178.999 227.431 179.21 227.31 179.451H240.184V192.446V205.441H227.19H218.597C218.567 205.682 218.537 205.893 218.476 206.134H227.19H240.184V219.129V232.124H227.19H217.21C217.21 232.365 217.24 232.576 217.24 232.817H227.19H240.184V245.812V258.806H227.19H221.31C221.371 259.047 221.461 259.259 221.522 259.5H227.19H240.184V260.525C240.426 260.495 240.637 260.465 240.878 260.404V259.5H245.853C246.908 259.289 247.963 259.047 249.018 258.806H240.878V245.812V232.817H253.903H266.897V245.812V251.992C267.138 251.842 267.35 251.691 267.591 251.54V245.781V232.787H280.585H293.58V245.781V258.776H287.761C288.063 259.017 288.394 259.228 288.726 259.47H293.58V262.665C293.821 262.816 294.032 262.937 294.273 263.088V259.47H307.268H320.263V272.464V273.881C320.504 273.942 320.715 274.002 320.956 274.062V272.464V259.47H333.951H346.945V272.464V277.137H347.006ZM266.897 219.129V232.124H253.903H240.908V219.129V206.134H253.903H266.897V219.129ZM266.897 192.446V205.441H253.903H240.908V192.446V179.451H253.903H266.897V192.446ZM293.61 219.129V232.124H280.615H267.621V219.129V206.134H280.615H293.61V219.129Z" fill="white"/>
<path d="M373.688 115.775L374.382 115.322V112.307V99.3128H387.377H389.155L388.884 98.6193H387.407H374.412V86.7101C374.201 86.8005 373.96 86.9211 373.719 87.0116V98.5892H360.724H347.729V98.5289C347.187 98.7701 346.614 99.0113 346.071 99.2525H347.036V112.247V125.242H334.041H321.047V112.247V110.318C320.805 110.408 320.594 110.529 320.353 110.619V112.247V125.242H307.358H294.364V121.986C294.123 122.076 293.912 122.197 293.67 122.287V125.242H286.857C286.314 125.483 285.771 125.694 285.259 125.935H293.67V138.93V146.829C293.912 146.769 294.123 146.709 294.364 146.678V138.93V125.935H307.358H320.353V138.93V142.035C320.594 142.005 320.805 141.975 321.047 141.945V138.93V125.935H334.041H347.036V133.955L347.729 133.443V125.905H357.92L358.855 125.212H347.729V112.217V99.2223H360.724H373.719V112.217V115.775H373.688Z" fill="white"/>
<path d="M275.158 153.281C275.158 153.281 285.288 141.674 296.384 139.081C308.685 136.216 316.675 142.94 316.675 142.94C316.675 142.94 295.901 149.301 283.66 176.286C282.304 169.14 275.158 153.281 275.158 153.281Z" fill="#444BD3"/>
<path d="M300.424 153.04C300.575 152.919 300.695 152.799 300.846 152.678V138.447C300.695 138.447 300.575 138.478 300.424 138.478V153.04Z" fill="white"/>
<path d="M313.298 144.327C313.449 144.266 313.569 144.206 313.72 144.116V141.071C313.569 141.01 313.449 140.92 313.298 140.859V144.327Z" fill="white"/>
<path d="M287.55 168.809C287.701 168.567 287.821 168.326 287.972 168.115V142.638C287.821 142.729 287.701 142.819 287.55 142.88V168.809Z" fill="white"/>
<path d="M469.988 185.843C469.988 185.813 469.988 185.813 469.988 185.843C469.958 185.783 469.958 185.723 469.927 185.693C469.897 185.662 469.867 185.632 469.837 185.602C469.837 185.602 469.837 185.602 469.807 185.602C469.777 185.572 469.716 185.542 469.686 185.542C469.626 185.542 469.596 185.512 469.535 185.512C469.505 185.512 469.475 185.512 469.475 185.512L354.845 211.441C356.352 201.551 357.679 191.421 357.679 186.748C357.679 176.648 356.141 158.166 345.8 147.915C343.147 145.292 340.071 143.362 336.604 142.186C347.307 132.206 401.909 97.4435 409.567 95.0315C411.859 94.3079 414.059 93.735 416.17 93.1622C422.803 91.3833 427.627 90.0869 427.416 86.7101C427.386 86.2277 427.145 85.8056 426.722 85.4136C426.029 84.8408 424.883 84.4187 423.346 84.1775C425.908 83.0619 429.165 80.7404 430.883 77.9666C432.059 76.0973 432.361 74.2581 431.818 72.5697C431.305 70.9416 430.401 69.9467 429.195 69.5547C428.773 69.4341 428.351 69.3738 427.928 69.404C432.391 66.389 436.582 63.4343 438.903 61.2936C440.2 60.0876 440.682 58.6404 440.169 57.3741C439.777 56.3792 438.783 55.746 437.667 55.746C431.155 55.8365 292.495 118.247 277.631 124.94C277.812 124.458 277.962 123.975 278.083 123.493C278.626 121.141 278.837 116.709 274.314 112.73C276.606 111.343 277.962 105.373 270.696 104.74C263.943 104.137 254.867 111.704 254.385 118.609C253.933 124.85 257.491 128.227 258.636 129.191C257.521 130.186 243.983 142.277 231.35 161.301C217.24 162.929 204.035 164.045 191.764 164.768C194.959 159.281 197.1 153.764 197.552 149.543C198.035 145.292 196.738 142.729 193.904 142.307C190.467 141.794 187.874 144.417 186.789 149.482C185.824 153.884 186.156 159.552 187.543 165.01C174.488 165.673 162.518 165.854 151.574 165.703C153.865 162.417 155.644 159.07 156.759 155.934C158.9 149.874 158.086 145.533 154.468 143.995C152.327 143.091 150.368 143.392 148.83 144.839C145.393 148.095 144.368 156.929 146.026 165.582C130.83 165.191 117.745 164.165 106.741 162.809C107.796 161.392 108.761 159.975 109.575 158.558C113.313 152.075 113.524 146.859 110.147 144.176C108.248 142.668 106.168 142.488 104.087 143.633C99.806 146.015 96.5197 153.402 95.7659 161.271C93.5047 160.909 91.3339 160.547 89.3138 160.186C79.9975 158.497 72.3092 156.598 66.1586 154.819C70.5304 146.859 76.078 140.226 76.1684 140.106L75.475 139.533C75.0529 140.015 69.5354 146.618 65.224 154.548C52.7419 150.839 46.8928 147.613 46.8023 147.553L46.3501 148.337C46.4405 148.397 52.2896 151.623 64.7717 155.362C61.4854 161.603 59.0432 168.537 60.4301 173.964C61.3045 177.462 63.7165 179.994 67.5757 181.502C69.5354 182.286 71.7062 182.647 73.9976 182.647C79.1533 182.647 85.0325 180.718 91.1228 176.949C93.0524 175.773 94.9519 174.416 96.7609 172.939C98.8412 179.994 103.695 184.909 110.75 186.959C112.771 187.562 114.881 187.833 117.052 187.833C124.047 187.833 131.644 184.788 139.031 178.969C142.046 176.617 144.88 173.844 147.413 170.919C147.473 171.07 147.533 171.251 147.564 171.401C149.403 176.617 153.865 185.512 163.121 186.235C163.513 186.265 163.905 186.296 164.297 186.296C173.312 186.296 182.417 178.366 188.809 169.2C188.99 169.683 189.171 170.165 189.382 170.618C192.547 178.185 197.583 183.612 203.703 186.115L193.663 186.808L193.723 187.713L205.964 186.868C206.115 186.868 206.266 186.778 206.326 186.627C206.386 186.476 206.386 186.326 206.326 186.175L200.809 176.617L200.025 177.07L204.969 185.602C197.371 182.919 192.216 175.924 189.442 168.296C190.045 167.422 190.618 166.517 191.161 165.643C203.914 164.919 217.12 163.773 230.657 162.236C227.823 166.577 225.019 171.311 222.456 176.316C213.894 192.989 209.341 209.662 208.889 225.943C208.678 234.113 209.522 242.163 211.391 250.093L53.978 291.368C53.7971 291.429 53.6464 291.579 53.6464 291.79C53.6464 292.001 53.767 292.152 53.9479 292.243L104.449 311.448L124.921 379.346C124.981 379.527 125.162 379.678 125.343 379.678C125.373 379.678 125.373 379.678 125.403 379.678C125.464 379.678 125.524 379.647 125.584 379.587L176.176 345.186L251.581 376.12C251.641 376.15 251.702 376.15 251.762 376.15C251.853 376.15 251.973 376.12 252.033 376.06C313.208 326.192 351.408 295.047 366.151 282.987L366.061 283.379L365.91 283.68C365.94 283.71 366.031 283.74 366.121 283.831C367.056 284.434 369.95 286.303 373.357 286.966C374.141 287.117 374.895 287.208 375.618 287.208C378.965 287.208 381.739 285.64 383.698 282.595C384 282.142 384.271 281.69 384.512 281.238C384.573 281.238 384.693 281.238 384.904 281.238C386.502 281.238 392.08 280.876 395.547 276.052C399.015 275.238 403.296 272.464 404.08 263.811C404.442 259.982 402.633 256.696 400.432 254.163L469.867 186.296C469.897 186.265 469.927 186.235 469.958 186.175C469.958 186.175 469.958 186.175 469.958 186.145C469.988 186.115 469.988 186.054 469.988 186.024C470.018 185.934 470.018 185.873 469.988 185.843ZM187.723 149.633C188.628 145.442 190.588 143.121 193.181 143.121C193.392 143.121 193.603 143.151 193.844 143.181C196.768 143.603 197.01 146.799 196.708 149.422C196.226 153.703 193.995 159.341 190.708 164.829C189.955 164.859 189.231 164.919 188.477 164.949C187.03 159.462 186.789 153.945 187.723 149.633ZM149.523 145.472C150.307 144.719 151.212 144.357 152.207 144.357C152.84 144.357 153.503 144.508 154.197 144.809C158.478 146.618 157.151 152.347 156.006 155.603C154.86 158.829 152.96 162.266 150.579 165.643C149.403 165.613 148.197 165.613 147.051 165.582C145.333 157.14 146.237 148.578 149.523 145.472ZM104.6 144.417C105.354 143.995 106.107 143.784 106.831 143.784C107.796 143.784 108.73 144.146 109.665 144.869C112.65 147.221 112.348 152.045 108.881 158.105C108.007 159.613 106.952 161.15 105.776 162.688C102.58 162.296 99.5648 161.874 96.7307 161.422C97.4845 153.462 100.952 146.437 104.6 144.417ZM90.7309 176.195C82.1984 181.472 74.1182 183.069 67.9978 180.657C64.4401 179.271 62.209 176.919 61.4251 173.723C60.1286 168.537 62.5708 161.723 65.827 155.603C72.0077 157.412 79.7563 159.341 89.1631 161.03C91.3339 161.422 93.5348 161.814 95.7961 162.145C95.6453 164.135 95.6755 166.125 95.8865 168.085C96.0373 169.442 96.2785 170.768 96.58 172.004C94.6805 173.572 92.7208 174.959 90.7309 176.195ZM96.7609 168.025C96.5498 166.125 96.5197 164.196 96.6403 162.326C99.4141 162.748 102.218 163.14 105.082 163.532C102.851 166.306 100.198 168.989 97.3337 171.401C97.0624 170.165 96.8815 169.02 96.7609 168.025ZM138.549 178.306C129.082 185.753 119.313 188.527 111.082 186.115C102.61 183.642 99.0824 177.492 97.6051 172.336C100.801 169.683 103.726 166.698 106.168 163.623C118.71 165.191 132.127 166.155 146.297 166.487C146.539 167.663 146.84 168.809 147.202 169.954C144.609 172.999 141.654 175.864 138.549 178.306ZM147.202 166.547C148.076 166.577 148.981 166.577 149.885 166.608C149.252 167.482 148.589 168.326 147.895 169.17C147.624 168.296 147.413 167.422 147.202 166.547ZM185.311 172.517C181.09 177.642 172.648 186.145 163.302 185.391C154.558 184.698 150.307 176.165 148.528 171.16C148.408 170.829 148.317 170.497 148.197 170.165C149.192 168.989 150.126 167.783 150.971 166.577C153.473 166.608 155.975 166.638 158.508 166.638C167.975 166.638 177.774 166.366 187.814 165.854C188.025 166.638 188.266 167.391 188.537 168.175C187.512 169.683 186.427 171.13 185.311 172.517ZM189.171 167.271C189.02 166.788 188.869 166.306 188.749 165.854C189.201 165.824 189.683 165.794 190.135 165.763C189.804 166.276 189.502 166.758 189.171 167.271ZM457.536 189.13L353.368 220.817C353.79 218.134 354.242 215.3 354.694 212.405L457.536 189.13ZM356.774 186.718C356.774 196.788 350.473 232.606 349.9 235.892L335.76 241.862C329.881 239.42 323.459 235.47 317.248 230.375C321.439 219.913 325.238 189.069 325.418 187.743L324.514 187.622C324.484 187.954 320.625 219.099 316.524 229.742C314.353 227.933 312.243 226.003 310.163 223.953C296.655 210.566 287.309 193.954 283.781 177.16C284.294 176.014 288.213 167.693 295.088 159.462C301.841 151.352 312.906 141.674 327.288 141.583C334.494 141.553 340.524 143.874 345.197 148.487C355.267 158.558 356.774 176.768 356.774 186.718ZM315.559 142.88C304.826 141.854 286.917 155.512 281.58 168.356C279.771 162.085 277.751 157.171 275.671 153.342C277.178 151.593 287.972 139.744 299.701 139.05C309.891 138.447 314.504 141.553 315.861 142.759C315.771 142.819 315.65 142.849 315.559 142.88ZM364.644 87.1623C370.101 84.7503 375.528 82.3685 380.834 80.0771L390.754 104.348C385.598 107.483 379.93 111.041 374.473 114.539L364.644 87.1623ZM428.984 70.3989C429.888 70.6703 430.582 71.5145 431.004 72.8109C431.456 74.2581 431.185 75.7958 430.16 77.454C428.049 80.861 423.316 83.6046 421.084 83.9363C420.693 83.9363 420.301 83.9061 419.909 83.9061C418.672 83.6951 417.587 82.881 417.135 81.7956C416.622 80.5595 417.135 79.263 418.552 78.2379C421.868 75.8259 424.28 75.1928 424.28 75.1928L424.069 74.3184C423.979 74.3486 421.476 74.9817 418.009 77.5143C416.26 78.7806 415.627 80.5293 416.291 82.1574C416.592 82.9112 417.135 83.5443 417.798 83.9966C417.346 84.0267 416.863 84.0569 416.381 84.1172C412.612 84.5393 410.502 83.7252 410.11 82.7303C409.839 82.067 410.321 81.1625 411.497 80.258C412.401 79.5344 415.054 77.846 418.401 75.6752C420.512 74.3184 422.833 72.8109 425.185 71.2431C426.059 70.7306 427.657 69.9768 428.984 70.3989ZM437.727 56.6204C438.481 56.5902 439.114 57.0123 439.385 57.6756C439.747 58.5801 439.355 59.6655 438.33 60.6002C435.587 63.1328 430.129 66.9015 424.733 70.4592C424.341 70.7004 424.069 70.8813 424.039 70.9115C421.929 72.2984 419.818 73.6551 417.919 74.8913C414.542 77.0621 411.889 78.8108 410.954 79.5344C408.904 81.1323 409.055 82.4288 409.296 83.0619C409.959 84.6599 412.703 85.4136 416.502 84.9915C417.708 84.8709 418.823 84.8106 419.848 84.7805C420.09 84.8106 420.331 84.8408 420.572 84.8408C420.753 84.8408 420.934 84.8408 421.115 84.8106C423.707 84.9312 425.456 85.4136 426.18 86.0166C426.421 86.2277 426.542 86.4387 426.572 86.6498C426.722 89.303 421.989 90.5693 415.989 92.1672C413.969 92.7099 411.647 93.3431 409.356 94.0667C406.763 94.8807 399.829 98.7701 391.537 103.805L381.678 79.655C410.743 67.0221 435.195 56.6807 437.727 56.6204ZM262.315 119.604C262.978 119.363 264.425 119.151 265.48 121.383C266.837 117.282 271.842 114.147 273.5 113.182C276.817 115.956 278.143 119.513 277.269 123.252C276.364 127.051 273.169 130.518 269.973 131.151C266.596 131.845 263.279 130.85 261.259 130.005C262.918 129.342 263.46 125.875 263.581 125.001C260.626 123.885 259.903 120.508 262.315 119.604ZM223.331 176.798C236.989 150.206 256.707 132.176 259.119 130.036C260.325 130.729 265.088 133.111 270.154 132.086C272.927 131.513 275.611 129.161 277.148 126.176C280.163 124.82 322.494 105.765 362.955 87.9462L369.166 117.976C355.9 126.629 340.433 137.241 335.669 141.854C333.137 141.101 330.393 140.709 327.469 140.709C327.408 140.709 327.348 140.709 327.288 140.709C323.579 140.739 320.112 141.372 316.856 142.427C315.891 141.432 311.308 137.483 299.67 138.146C287.882 138.839 277.45 149.965 275.249 152.497C272.897 148.307 270.546 145.472 268.525 143.573C263.37 138.719 259.239 138.628 259.058 138.628V139.533C259.088 139.533 263.098 139.653 267.983 144.327C272.535 148.668 278.807 157.864 282.847 177.22C286.374 194.225 295.872 211.049 309.529 224.616C321.107 236.103 334.554 244.033 344.624 245.299C344.895 245.329 345.167 245.359 345.438 245.39C342.393 247.108 330.996 255.188 337.81 276.233C301.419 273.55 279.832 254.646 267.53 237.189C261.47 227.511 252.787 210.204 246.456 183.13C246.456 183.13 245.642 199.682 251.008 218.888C254.234 230.405 261.983 245.209 268.797 250.183C257.099 256.816 244.556 259.681 235.541 260.917C225.411 262.304 217.662 261.942 216.034 261.821C203.613 228.596 212.386 198.084 223.331 176.798ZM353.94 262.424C354.724 270.173 358.101 274.364 359.639 275.932C354.182 276.444 348.996 276.625 344.051 276.535C342.996 275.117 340.222 270.504 340.252 261.128C340.313 251.028 345.921 246.867 347.941 245.661C352.644 246.143 356.895 246.384 360.784 246.415C358.553 248.465 353.126 254.404 353.94 262.424ZM227.28 283.77C222.607 276.685 219.019 269.66 216.336 262.726C217.15 262.756 218.567 262.816 220.466 262.816C224.054 262.816 229.391 262.635 235.602 261.791C246.124 260.374 261.38 256.726 274.616 247.56C278.867 252.234 283.48 256.394 288.455 259.982L227.28 283.77ZM105.293 310.966C105.233 310.845 105.143 310.755 105.022 310.694L55.6363 291.911L211.663 250.997C213.14 257.027 215.22 262.937 217.904 268.786L105.293 310.966ZM125.856 378.411V324.563L175.151 344.794L125.856 378.411ZM251.641 375.185L126.609 323.9L289.329 260.615C292.766 263.057 296.384 265.228 300.123 267.128C317.218 275.811 337.599 279.067 360.724 276.715C363.558 276.444 369.528 276.926 371.669 277.228C362.262 285.007 257.068 370.753 251.641 375.185ZM403.175 263.691C402.633 269.66 400.251 273.489 396.271 274.846C396.603 274.243 396.934 273.58 397.206 272.886C398.713 268.937 398.773 265.409 397.387 262.424C395.397 258.113 391.145 256.515 390.965 256.455L390.663 257.299C390.693 257.299 394.763 258.836 396.572 262.816C397.839 265.56 397.748 268.846 396.361 272.555C393.588 279.911 386.683 280.303 384.935 280.303C386.08 277.771 386.382 275.328 385.809 272.977C384.573 268.002 379.93 265.319 379.719 265.198L379.266 265.982C379.297 266.012 383.789 268.575 384.904 273.188C385.598 275.992 384.904 278.977 382.915 282.052C380.683 285.489 377.518 286.846 373.478 286.062C370.221 285.429 367.478 283.65 366.573 283.047C366.422 282.956 366.332 282.896 366.272 282.866C370.764 279.188 373.025 277.349 373.055 277.288C373.176 277.137 373.176 276.926 373.086 276.776C372.965 276.595 372.814 276.323 367.99 275.962C366.543 275.841 363.046 275.63 360.875 275.811C360.091 275.117 355.749 271.017 354.875 262.334C353.971 253.409 361.267 247.168 362.201 246.415C380.834 246.294 390.271 241.38 395.909 238.455C399.557 236.556 401.547 235.53 403.567 236.706C405.708 237.973 405.437 239.932 404.864 241.38C403.266 245.269 397.387 249.52 393.527 248.555C393.316 248.495 393.075 248.616 392.985 248.827C392.894 249.038 392.985 249.279 393.196 249.399C393.256 249.46 403.929 255.369 403.175 263.691ZM399.829 253.47C398.17 251.721 396.422 250.394 395.155 249.58C399.226 249.249 404.11 245.42 405.617 241.741C406.643 239.239 406.04 237.189 403.959 235.953C401.517 234.505 399.105 235.772 395.427 237.671C388.342 241.349 375.166 248.224 344.654 244.395C342.242 244.093 339.649 243.4 336.906 242.344L467.485 187.29L399.829 253.47Z" fill="#121127"/>
</svg>
