<svg width="28" height="28" viewBox="0 0 28 28" fill="none" xmlns="http://www.w3.org/2000/svg">
<path d="M14 2.33325C7.55668 2.33325 2.33333 7.5566 2.33333 13.9999C2.33333 20.4432 7.55668 25.6666 14 25.6666C20.4433 25.6666 25.6667 20.4432 25.6667 13.9999C25.6667 7.5566 20.4433 2.33325 14 2.33325Z" fill="#90ECF4"/>
<path fill-rule="evenodd" clip-rule="evenodd" d="M12.9888 11.0843C12.6661 11.642 11.9524 11.8326 11.3947 11.51C10.837 11.1873 10.6464 10.4736 10.969 9.9159C11.5724 8.87279 12.7031 8.16675 14.0001 8.16675C15.9331 8.16675 17.5001 9.73375 17.5001 11.6667C17.5 12.9474 16.7145 13.9931 15.7501 14.5834C14.9754 15.0576 15.4584 16.3334 13.997 16.3334C13.3527 16.3334 12.8303 15.8111 12.8303 15.1667C12.8303 15.1258 12.8325 15.0853 12.8366 15.0454C12.8689 14.4284 13.1441 13.9264 13.4436 13.5613C13.76 13.1758 14.1759 12.8611 14.494 12.672C16.2635 11.6201 14.1053 9.46805 12.9888 11.0843ZM13.997 17.5001C13.3527 17.5001 12.8303 18.0224 12.8303 18.6667C12.8303 19.3111 13.3527 19.8334 13.997 19.8334C14.6413 19.8334 15.1637 19.3111 15.1637 18.6667C15.1637 18.0224 14.6413 17.5001 13.997 17.5001Z" fill="#444BD3"/>
</svg>
