<svg width="32" height="32" viewBox="0 0 32 32" fill="none" xmlns="http://www.w3.org/2000/svg">
<path d="M29.3333 8.00961C29.3333 6.00878 27.2117 4.72064 25.4365 5.64364L18.9481 9.01718C18.6593 9.16736 18.3255 9.20668 18.0097 9.12772L14.1764 8.16941C13.5094 8.00264 12.8037 8.09999 12.2066 8.44114L4.01029 13.1248C3.17942 13.5996 2.66666 14.4831 2.66666 15.4401V23.9997C2.66666 25.4724 3.86056 26.6663 5.33332 26.6663H26.6667C28.1394 26.6663 29.3333 25.4724 29.3333 23.9997V8.00961Z" fill="#90ECF4"/>
<path d="M12.1671 17.7707L3.53183 21.0089C3.01142 21.204 2.66666 21.7015 2.66666 22.2573V24C2.66666 25.4728 3.86056 26.6666 5.33332 26.6666H26.6667C28.1394 26.6666 29.3333 25.4728 29.3333 24V16C29.3333 15.0691 28.4035 14.4247 27.5318 14.7516L19.8329 18.2293C19.0734 18.5141 18.2452 18.5613 17.4583 18.3646L14.5417 17.6354C13.7548 17.4387 12.9266 17.4859 12.1671 17.7707Z" fill="#444BD3"/>
</svg>
