<svg width="95" height="95" viewBox="0 0 95 95" fill="none" xmlns="http://www.w3.org/2000/svg">
<circle cx="47.4996" cy="47.6004" r="46.631" fill="#23A26D" fill-opacity="0.12"/>
<path d="M46.6667 25.3952C34.4316 25.3952 24.4614 35.3653 24.4614 47.6004C24.4614 59.8355 34.4316 69.8056 46.6667 69.8056C58.9017 69.8056 68.8719 59.8355 68.8719 47.6004C68.8719 35.3653 58.9017 25.3952 46.6667 25.3952ZM57.2808 42.4932L44.6904 55.0836C44.3795 55.3945 43.9576 55.5721 43.5135 55.5721C43.0694 55.5721 42.6475 55.3945 42.3366 55.0836L36.0526 48.7995C35.4086 48.1556 35.4086 47.0897 36.0526 46.4457C36.6965 45.8018 37.7624 45.8018 38.4063 46.4457L43.5135 51.5529L54.927 40.1395C55.571 39.4955 56.6368 39.4955 57.2808 40.1395C57.9247 40.7834 57.9247 41.8271 57.2808 42.4932Z" fill="#23A26D"/>
</svg>
