<svg width="331" height="18" viewBox="0 0 331 18" fill="none" xmlns="http://www.w3.org/2000/svg">
<path d="M5.602 1.736C6.67933 1.736 7.63933 1.98133 8.482 2.472C9.32467 2.952 9.97533 3.624 10.434 4.488C10.9033 5.34133 11.138 6.31733 11.138 7.416C11.138 8.51467 10.9033 9.496 10.434 10.36C9.97533 11.2133 9.32467 11.8853 8.482 12.376C7.63933 12.856 6.67933 13.096 5.602 13.096C4.514 13.096 3.54867 12.856 2.706 12.376C1.86333 11.8853 1.20733 11.2133 0.738 10.36C0.268667 9.496 0.034 8.51467 0.034 7.416C0.034 6.31733 0.268667 5.34133 0.738 4.488C1.20733 3.624 1.86333 2.952 2.706 2.472C3.54867 1.98133 4.514 1.736 5.602 1.736ZM5.602 2.376C4.61 2.376 3.746 2.58933 3.01 3.016C2.274 3.432 1.70867 4.01867 1.314 4.776C0.919333 5.53333 0.722 6.41333 0.722 7.416C0.722 8.408 0.919333 9.288 1.314 10.056C1.70867 10.8133 2.274 11.4053 3.01 11.832C3.746 12.2587 4.61 12.472 5.602 12.472C6.58333 12.472 7.43667 12.2587 8.162 11.832C8.898 11.4053 9.46333 10.8133 9.858 10.056C10.2527 9.288 10.45 8.408 10.45 7.416C10.45 6.41333 10.2527 5.53333 9.858 4.776C9.46333 4.01867 8.898 3.432 8.162 3.016C7.43667 2.58933 6.58333 2.376 5.602 2.376ZM5.57 3.704C4.93 3.704 4.34333 3.85333 3.81 4.152C3.28733 4.45067 2.87133 4.88267 2.562 5.448C2.25267 6.00267 2.098 6.65333 2.098 7.4C2.098 8.14667 2.25267 8.80267 2.562 9.368C2.87133 9.92267 3.28733 10.3547 3.81 10.664C4.34333 10.9627 4.93 11.112 5.57 11.112C6.37 11.112 7.06333 10.8987 7.65 10.472C8.23667 10.0347 8.63667 9.45333 8.85 8.728H7.506C7.186 9.61333 6.54067 10.056 5.57 10.056C4.93 10.056 4.40733 9.82667 4.002 9.368C3.59667 8.90933 3.394 8.25867 3.394 7.416C3.394 6.56267 3.59667 5.90667 4.002 5.448C4.40733 4.98933 4.93 4.76 5.57 4.76C6.03933 4.76 6.44467 4.87733 6.786 5.112C7.12733 5.336 7.36733 5.66133 7.506 6.088H8.85C8.64733 5.33067 8.25267 4.744 7.666 4.328C7.07933 3.912 6.38067 3.704 5.57 3.704ZM17.0035 11.832C18.3582 10.744 19.4195 9.85333 20.1875 9.16C20.9555 8.456 21.6008 7.72533 22.1235 6.968C22.6568 6.2 22.9235 5.448 22.9235 4.712C22.9235 4.01867 22.7528 3.47467 22.4115 3.08C22.0808 2.67467 21.5422 2.472 20.7955 2.472C20.0702 2.472 19.5048 2.70133 19.0995 3.16C18.7048 3.608 18.4915 4.21067 18.4595 4.968H17.0515C17.0942 3.77333 17.4568 2.85067 18.1395 2.2C18.8222 1.54933 19.7022 1.224 20.7795 1.224C21.8782 1.224 22.7475 1.528 23.3875 2.136C24.0382 2.744 24.3635 3.58133 24.3635 4.648C24.3635 5.53333 24.0968 6.39733 23.5635 7.24C23.0408 8.072 22.4435 8.808 21.7715 9.448C21.0995 10.0773 20.2408 10.8133 19.1955 11.656H24.6995V12.872H17.0035V11.832ZM26.3826 7.096C26.3826 5.26133 26.6813 3.832 27.2786 2.808C27.876 1.77333 28.9213 1.256 30.4146 1.256C31.8973 1.256 32.9373 1.77333 33.5346 2.808C34.132 3.832 34.4306 5.26133 34.4306 7.096C34.4306 8.96267 34.132 10.4133 33.5346 11.448C32.9373 12.4827 31.8973 13 30.4146 13C28.9213 13 27.876 12.4827 27.2786 11.448C26.6813 10.4133 26.3826 8.96267 26.3826 7.096ZM32.9906 7.096C32.9906 6.168 32.9266 5.384 32.7986 4.744C32.6813 4.09333 32.4306 3.57067 32.0466 3.176C31.6733 2.78133 31.1293 2.584 30.4146 2.584C29.6893 2.584 29.1346 2.78133 28.7506 3.176C28.3773 3.57067 28.1266 4.09333 27.9986 4.744C27.8813 5.384 27.8226 6.168 27.8226 7.096C27.8226 8.056 27.8813 8.86133 27.9986 9.512C28.1266 10.1627 28.3773 10.6853 28.7506 11.08C29.1346 11.4747 29.6893 11.672 30.4146 11.672C31.1293 11.672 31.6733 11.4747 32.0466 11.08C32.4306 10.6853 32.6813 10.1627 32.7986 9.512C32.9266 8.86133 32.9906 8.056 32.9906 7.096ZM36.2535 11.832C37.6082 10.744 38.6695 9.85333 39.4375 9.16C40.2055 8.456 40.8508 7.72533 41.3735 6.968C41.9068 6.2 42.1735 5.448 42.1735 4.712C42.1735 4.01867 42.0028 3.47467 41.6615 3.08C41.3308 2.67467 40.7922 2.472 40.0455 2.472C39.3202 2.472 38.7548 2.70133 38.3495 3.16C37.9548 3.608 37.7415 4.21067 37.7095 4.968H36.3015C36.3442 3.77333 36.7068 2.85067 37.3895 2.2C38.0722 1.54933 38.9522 1.224 40.0295 1.224C41.1282 1.224 41.9975 1.528 42.6375 2.136C43.2882 2.744 43.6135 3.58133 43.6135 4.648C43.6135 5.53333 43.3468 6.39733 42.8135 7.24C42.2908 8.072 41.6935 8.808 41.0215 9.448C40.3495 10.0773 39.4908 10.8133 38.4455 11.656H43.9495V12.872H36.2535V11.832ZM45.6006 4.344C45.6753 3.36267 46.054 2.59467 46.7366 2.04C47.4193 1.48533 48.3046 1.208 49.3926 1.208C50.118 1.208 50.742 1.34133 51.2646 1.608C51.798 1.864 52.198 2.216 52.4646 2.664C52.742 3.112 52.8806 3.61867 52.8806 4.184C52.8806 4.84533 52.6886 5.416 52.3046 5.896C51.9313 6.376 51.4406 6.68533 50.8326 6.824V6.904C51.526 7.07467 52.0753 7.41067 52.4806 7.912C52.886 8.41333 53.0886 9.06933 53.0886 9.88C53.0886 10.488 52.95 11.0373 52.6726 11.528C52.3953 12.008 51.9793 12.3867 51.4246 12.664C50.87 12.9413 50.2033 13.08 49.4246 13.08C48.294 13.08 47.366 12.7867 46.6406 12.2C45.9153 11.6027 45.51 10.76 45.4246 9.672H46.8326C46.9073 10.312 47.1686 10.8347 47.6166 11.24C48.0646 11.6453 48.662 11.848 49.4086 11.848C50.1553 11.848 50.7206 11.656 51.1046 11.272C51.4993 10.8773 51.6966 10.3707 51.6966 9.752C51.6966 8.952 51.43 8.376 50.8966 8.024C50.3633 7.672 49.558 7.496 48.4806 7.496H48.1126V6.28H48.4966C49.478 6.26933 50.2193 6.10933 50.7206 5.8C51.222 5.48 51.4726 4.98933 51.4726 4.328C51.4726 3.76267 51.286 3.30933 50.9126 2.968C50.55 2.62667 50.0273 2.456 49.3446 2.456C48.6833 2.456 48.15 2.62667 47.7446 2.968C47.3393 3.30933 47.0993 3.768 47.0246 4.344H45.6006ZM70.9618 2.696H65.3458V6.344C65.5911 6.00267 65.9538 5.72533 66.4338 5.512C66.9138 5.288 67.4311 5.176 67.9858 5.176C68.8711 5.176 69.5911 5.36267 70.1458 5.736C70.7004 6.09867 71.0951 6.57333 71.3298 7.16C71.5751 7.736 71.6978 8.34933 71.6978 9C71.6978 9.768 71.5538 10.456 71.2658 11.064C70.9778 11.672 70.5351 12.152 69.9378 12.504C69.3511 12.856 68.6204 13.032 67.7458 13.032C66.6258 13.032 65.7191 12.744 65.0258 12.168C64.3324 11.592 63.9111 10.824 63.7618 9.864H65.1858C65.3244 10.472 65.6178 10.9467 66.0658 11.288C66.5138 11.6293 67.0791 11.8 67.7618 11.8C68.6044 11.8 69.2391 11.5493 69.6658 11.048C70.0924 10.536 70.3058 9.864 70.3058 9.032C70.3058 8.2 70.0924 7.56 69.6658 7.112C69.2391 6.65333 68.6098 6.424 67.7778 6.424C67.2124 6.424 66.7164 6.56267 66.2898 6.84C65.8738 7.10667 65.5698 7.47467 65.3778 7.944H64.0018V1.416H70.9618V2.696ZM77.4086 13.112C76.6726 13.112 76.0113 12.984 75.4246 12.728C74.8486 12.4613 74.3953 12.0987 74.0646 11.64C73.734 11.1707 73.5633 10.632 73.5526 10.024H75.1046C75.158 10.5467 75.3713 10.9893 75.7446 11.352C76.1286 11.704 76.6833 11.88 77.4086 11.88C78.102 11.88 78.646 11.7093 79.0406 11.368C79.446 11.016 79.6486 10.568 79.6486 10.024C79.6486 9.59733 79.5313 9.25067 79.2966 8.984C79.062 8.71733 78.7686 8.51467 78.4166 8.376C78.0646 8.23733 77.59 8.088 76.9926 7.928C76.2566 7.736 75.6646 7.544 75.2166 7.352C74.7793 7.16 74.4006 6.86133 74.0806 6.456C73.7713 6.04 73.6166 5.48533 73.6166 4.792C73.6166 4.184 73.7713 3.64533 74.0806 3.176C74.39 2.70667 74.822 2.344 75.3766 2.088C75.942 1.832 76.5873 1.704 77.3126 1.704C78.358 1.704 79.2113 1.96533 79.8726 2.488C80.5446 3.01067 80.9233 3.704 81.0086 4.568H79.4086C79.3553 4.14133 79.1313 3.768 78.7366 3.448C78.342 3.11733 77.8193 2.952 77.1686 2.952C76.5606 2.952 76.0646 3.112 75.6806 3.432C75.2966 3.74133 75.1046 4.17867 75.1046 4.744C75.1046 5.14933 75.2166 5.48 75.4406 5.736C75.6753 5.992 75.958 6.18933 76.2886 6.328C76.63 6.456 77.1046 6.60533 77.7126 6.776C78.4486 6.97867 79.0406 7.18133 79.4886 7.384C79.9366 7.576 80.3206 7.88 80.6406 8.296C80.9606 8.70133 81.1206 9.256 81.1206 9.96C81.1206 10.504 80.9766 11.016 80.6886 11.496C80.4006 11.976 79.974 12.3653 79.4086 12.664C78.8433 12.9627 78.1766 13.112 77.4086 13.112ZM85.0393 5.432V10.6C85.0393 11.0267 85.1299 11.3307 85.3113 11.512C85.4926 11.6827 85.8073 11.768 86.2552 11.768H87.3273V13H86.0153C85.2046 13 84.5966 12.8133 84.1913 12.44C83.7859 12.0667 83.5833 11.4533 83.5833 10.6V5.432H82.4473V4.232H83.5833V2.024H85.0393V4.232H87.3273V5.432H85.0393ZM88.5474 8.584C88.5474 7.688 88.7287 6.904 89.0914 6.232C89.454 5.54933 89.95 5.02133 90.5794 4.648C91.2194 4.27467 91.9287 4.088 92.7074 4.088C93.4754 4.088 94.142 4.25333 94.7074 4.584C95.2727 4.91467 95.694 5.33067 95.9714 5.832V4.232H97.4434V13H95.9714V11.368C95.6834 11.88 95.2514 12.3067 94.6754 12.648C94.11 12.9787 93.4487 13.144 92.6914 13.144C91.9127 13.144 91.2087 12.952 90.5794 12.568C89.95 12.184 89.454 11.6453 89.0914 10.952C88.7287 10.2587 88.5474 9.46933 88.5474 8.584ZM95.9714 8.6C95.9714 7.93867 95.838 7.36267 95.5714 6.872C95.3047 6.38133 94.942 6.008 94.4834 5.752C94.0354 5.48533 93.5394 5.352 92.9954 5.352C92.4514 5.352 91.9554 5.48 91.5074 5.736C91.0594 5.992 90.702 6.36533 90.4354 6.856C90.1687 7.34667 90.0354 7.92267 90.0354 8.584C90.0354 9.256 90.1687 9.84267 90.4354 10.344C90.702 10.8347 91.0594 11.2133 91.5074 11.48C91.9554 11.736 92.4514 11.864 92.9954 11.864C93.5394 11.864 94.0354 11.736 94.4834 11.48C94.942 11.2133 95.3047 10.8347 95.5714 10.344C95.838 9.84267 95.9714 9.26133 95.9714 8.6ZM101.36 5.656C101.616 5.15467 101.979 4.76533 102.448 4.488C102.928 4.21067 103.509 4.072 104.192 4.072V5.576H103.808C102.176 5.576 101.36 6.46133 101.36 8.232V13H99.9039V4.232H101.36V5.656ZM105.329 8.6C105.329 7.69333 105.51 6.904 105.873 6.232C106.235 5.54933 106.737 5.02133 107.377 4.648C108.027 4.27467 108.769 4.088 109.601 4.088C110.678 4.088 111.563 4.34933 112.257 4.872C112.961 5.39467 113.425 6.12 113.649 7.048H112.081C111.931 6.51467 111.638 6.09333 111.201 5.784C110.774 5.47467 110.241 5.32 109.601 5.32C108.769 5.32 108.097 5.608 107.585 6.184C107.073 6.74933 106.817 7.55467 106.817 8.6C106.817 9.656 107.073 10.472 107.585 11.048C108.097 11.624 108.769 11.912 109.601 11.912C110.241 11.912 110.774 11.7627 111.201 11.464C111.627 11.1653 111.921 10.7387 112.081 10.184H113.649C113.414 11.08 112.945 11.8 112.241 12.344C111.537 12.8773 110.657 13.144 109.601 13.144C108.769 13.144 108.027 12.9573 107.377 12.584C106.737 12.2107 106.235 11.6827 105.873 11C105.51 10.3173 105.329 9.51733 105.329 8.6ZM119.415 13.144C118.594 13.144 117.847 12.9573 117.175 12.584C116.514 12.2107 115.991 11.6827 115.607 11C115.234 10.3067 115.047 9.50667 115.047 8.6C115.047 7.704 115.239 6.91467 115.623 6.232C116.018 5.53867 116.551 5.01067 117.223 4.648C117.895 4.27467 118.647 4.088 119.479 4.088C120.311 4.088 121.063 4.27467 121.735 4.648C122.407 5.01067 122.935 5.53333 123.319 6.216C123.714 6.89867 123.911 7.69333 123.911 8.6C123.911 9.50667 123.709 10.3067 123.303 11C122.909 11.6827 122.37 12.2107 121.687 12.584C121.005 12.9573 120.247 13.144 119.415 13.144ZM119.415 11.864C119.938 11.864 120.429 11.7413 120.887 11.496C121.346 11.2507 121.714 10.8827 121.991 10.392C122.279 9.90133 122.423 9.304 122.423 8.6C122.423 7.896 122.285 7.29867 122.007 6.808C121.73 6.31733 121.367 5.95467 120.919 5.72C120.471 5.47467 119.986 5.352 119.463 5.352C118.93 5.352 118.439 5.47467 117.991 5.72C117.554 5.95467 117.202 6.31733 116.935 6.808C116.669 7.29867 116.535 7.896 116.535 8.6C116.535 9.31467 116.663 9.91733 116.919 10.408C117.186 10.8987 117.538 11.2667 117.975 11.512C118.413 11.7467 118.893 11.864 119.415 11.864ZM136.37 4.072C137.052 4.072 137.66 4.216 138.194 4.504C138.727 4.78133 139.148 5.20267 139.458 5.768C139.767 6.33333 139.922 7.02133 139.922 7.832V13H138.482V8.04C138.482 7.16533 138.263 6.49867 137.826 6.04C137.399 5.57067 136.818 5.336 136.082 5.336C135.324 5.336 134.722 5.58133 134.274 6.072C133.826 6.552 133.602 7.25067 133.602 8.168V13H132.162V8.04C132.162 7.16533 131.943 6.49867 131.506 6.04C131.079 5.57067 130.498 5.336 129.762 5.336C129.004 5.336 128.402 5.58133 127.954 6.072C127.506 6.552 127.282 7.25067 127.282 8.168V13H125.826V4.232H127.282V5.496C127.57 5.03733 127.954 4.68533 128.434 4.44C128.924 4.19467 129.463 4.072 130.05 4.072C130.786 4.072 131.436 4.23733 132.002 4.568C132.567 4.89867 132.988 5.384 133.266 6.024C133.511 5.40533 133.916 4.92533 134.482 4.584C135.047 4.24267 135.676 4.072 136.37 4.072ZM143.766 5.848C144.054 5.34667 144.481 4.93067 145.046 4.6C145.622 4.25867 146.289 4.088 147.046 4.088C147.825 4.088 148.529 4.27467 149.158 4.648C149.798 5.02133 150.299 5.54933 150.662 6.232C151.025 6.904 151.206 7.688 151.206 8.584C151.206 9.46933 151.025 10.2587 150.662 10.952C150.299 11.6453 149.798 12.184 149.158 12.568C148.529 12.952 147.825 13.144 147.046 13.144C146.299 13.144 145.638 12.9787 145.062 12.648C144.497 12.3067 144.065 11.8853 143.766 11.384V17.16H142.31V4.232H143.766V5.848ZM149.718 8.584C149.718 7.92267 149.585 7.34667 149.318 6.856C149.051 6.36533 148.689 5.992 148.23 5.736C147.782 5.48 147.286 5.352 146.742 5.352C146.209 5.352 145.713 5.48533 145.254 5.752C144.806 6.008 144.443 6.38667 144.166 6.888C143.899 7.37867 143.766 7.94933 143.766 8.6C143.766 9.26133 143.899 9.84267 144.166 10.344C144.443 10.8347 144.806 11.2133 145.254 11.48C145.713 11.736 146.209 11.864 146.742 11.864C147.286 11.864 147.782 11.736 148.23 11.48C148.689 11.2133 149.051 10.8347 149.318 10.344C149.585 9.84267 149.718 9.256 149.718 8.584ZM152.579 8.584C152.579 7.688 152.76 6.904 153.123 6.232C153.485 5.54933 153.981 5.02133 154.611 4.648C155.251 4.27467 155.96 4.088 156.739 4.088C157.507 4.088 158.173 4.25333 158.739 4.584C159.304 4.91467 159.725 5.33067 160.003 5.832V4.232H161.475V13H160.003V11.368C159.715 11.88 159.283 12.3067 158.707 12.648C158.141 12.9787 157.48 13.144 156.723 13.144C155.944 13.144 155.24 12.952 154.611 12.568C153.981 12.184 153.485 11.6453 153.123 10.952C152.76 10.2587 152.579 9.46933 152.579 8.584ZM160.003 8.6C160.003 7.93867 159.869 7.36267 159.603 6.872C159.336 6.38133 158.973 6.008 158.515 5.752C158.067 5.48533 157.571 5.352 157.027 5.352C156.483 5.352 155.987 5.48 155.539 5.736C155.091 5.992 154.733 6.36533 154.467 6.856C154.2 7.34667 154.067 7.92267 154.067 8.584C154.067 9.256 154.2 9.84267 154.467 10.344C154.733 10.8347 155.091 11.2133 155.539 11.48C155.987 11.736 156.483 11.864 157.027 11.864C157.571 11.864 158.067 11.736 158.515 11.48C158.973 11.2133 159.336 10.8347 159.603 10.344C159.869 9.84267 160.003 9.26133 160.003 8.6ZM168.207 4.072C169.274 4.072 170.138 4.39733 170.799 5.048C171.46 5.688 171.791 6.616 171.791 7.832V13H170.351V8.04C170.351 7.16533 170.132 6.49867 169.695 6.04C169.258 5.57067 168.66 5.336 167.903 5.336C167.135 5.336 166.522 5.576 166.063 6.056C165.615 6.536 165.391 7.23467 165.391 8.152V13H163.935V4.232H165.391V5.48C165.679 5.032 166.068 4.68533 166.559 4.44C167.06 4.19467 167.61 4.072 168.207 4.072ZM181.722 4.232L176.442 17.128H174.938L176.666 12.904L173.13 4.232H174.746L177.498 11.336L180.218 4.232H181.722ZM183.649 13.096C183.372 13.096 183.137 13 182.945 12.808C182.753 12.616 182.657 12.3813 182.657 12.104C182.657 11.8267 182.753 11.592 182.945 11.4C183.137 11.208 183.372 11.112 183.649 11.112C183.916 11.112 184.14 11.208 184.321 11.4C184.513 11.592 184.609 11.8267 184.609 12.104C184.609 12.3813 184.513 12.616 184.321 12.808C184.14 13 183.916 13.096 183.649 13.096ZM197.402 10.52H192.538L191.642 13H190.106L194.138 1.912H195.818L199.834 13H198.298L197.402 10.52ZM196.986 9.336L194.97 3.704L192.954 9.336H196.986ZM203.047 1.16V13H201.591V1.16H203.047ZM206.985 1.16V13H205.529V1.16H206.985ZM215.188 5.656C215.444 5.15467 215.807 4.76533 216.276 4.488C216.756 4.21067 217.337 4.072 218.02 4.072V5.576H217.636C216.004 5.576 215.188 6.46133 215.188 8.232V13H213.732V4.232H215.188V5.656ZM220.453 2.808C220.175 2.808 219.941 2.712 219.749 2.52C219.557 2.328 219.461 2.09333 219.461 1.816C219.461 1.53867 219.557 1.304 219.749 1.112C219.941 0.919999 220.175 0.823999 220.453 0.823999C220.719 0.823999 220.943 0.919999 221.125 1.112C221.317 1.304 221.413 1.53867 221.413 1.816C221.413 2.09333 221.317 2.328 221.125 2.52C220.943 2.712 220.719 2.808 220.453 2.808ZM221.157 4.232V13H219.701V4.232H221.157ZM227.254 4.088C228.012 4.088 228.673 4.25333 229.238 4.584C229.814 4.91467 230.241 5.33067 230.518 5.832V4.232H231.99V13.192C231.99 13.992 231.82 14.7013 231.478 15.32C231.137 15.9493 230.646 16.44 230.006 16.792C229.377 17.144 228.641 17.32 227.798 17.32C226.646 17.32 225.686 17.048 224.918 16.504C224.15 15.96 223.697 15.2187 223.558 14.28H224.998C225.158 14.8133 225.489 15.24 225.99 15.56C226.492 15.8907 227.094 16.056 227.798 16.056C228.598 16.056 229.249 15.8053 229.75 15.304C230.262 14.8027 230.518 14.0987 230.518 13.192V11.352C230.23 11.864 229.804 12.2907 229.238 12.632C228.673 12.9733 228.012 13.144 227.254 13.144C226.476 13.144 225.766 12.952 225.126 12.568C224.497 12.184 224.001 11.6453 223.638 10.952C223.276 10.2587 223.094 9.46933 223.094 8.584C223.094 7.688 223.276 6.904 223.638 6.232C224.001 5.54933 224.497 5.02133 225.126 4.648C225.766 4.27467 226.476 4.088 227.254 4.088ZM230.518 8.6C230.518 7.93867 230.385 7.36267 230.118 6.872C229.852 6.38133 229.489 6.008 229.03 5.752C228.582 5.48533 228.086 5.352 227.542 5.352C226.998 5.352 226.502 5.48 226.054 5.736C225.606 5.992 225.249 6.36533 224.982 6.856C224.716 7.34667 224.582 7.92267 224.582 8.584C224.582 9.256 224.716 9.84267 224.982 10.344C225.249 10.8347 225.606 11.2133 226.054 11.48C226.502 11.736 226.998 11.864 227.542 11.864C228.086 11.864 228.582 11.736 229.03 11.48C229.489 11.2133 229.852 10.8347 230.118 10.344C230.385 9.84267 230.518 9.26133 230.518 8.6ZM238.803 4.072C239.464 4.072 240.061 4.216 240.595 4.504C241.128 4.78133 241.544 5.20267 241.843 5.768C242.152 6.33333 242.307 7.02133 242.307 7.832V13H240.867V8.04C240.867 7.16533 240.648 6.49867 240.211 6.04C239.773 5.57067 239.176 5.336 238.419 5.336C237.651 5.336 237.037 5.576 236.579 6.056C236.131 6.536 235.907 7.23467 235.907 8.152V13H234.451V1.16H235.907V5.48C236.195 5.032 236.589 4.68533 237.091 4.44C237.603 4.19467 238.173 4.072 238.803 4.072ZM246.461 5.432V10.6C246.461 11.0267 246.552 11.3307 246.733 11.512C246.914 11.6827 247.229 11.768 247.677 11.768H248.749V13H247.437C246.626 13 246.018 12.8133 245.613 12.44C245.208 12.0667 245.005 11.4533 245.005 10.6V5.432H243.869V4.232H245.005V2.024H246.461V4.232H248.749V5.432H246.461ZM253.617 13.144C252.945 13.144 252.343 13.032 251.809 12.808C251.276 12.5733 250.855 12.2533 250.545 11.848C250.236 11.432 250.065 10.9573 250.033 10.424H251.537C251.58 10.8613 251.783 11.2187 252.145 11.496C252.519 11.7733 253.004 11.912 253.601 11.912C254.156 11.912 254.593 11.7893 254.913 11.544C255.233 11.2987 255.393 10.9893 255.393 10.616C255.393 10.232 255.223 9.94933 254.881 9.768C254.54 9.576 254.012 9.38933 253.297 9.208C252.647 9.03733 252.113 8.86667 251.697 8.696C251.292 8.51467 250.94 8.25333 250.641 7.912C250.353 7.56 250.209 7.10133 250.209 6.536C250.209 6.088 250.343 5.67733 250.609 5.304C250.876 4.93067 251.255 4.63733 251.745 4.424C252.236 4.2 252.796 4.088 253.425 4.088C254.396 4.088 255.18 4.33333 255.777 4.824C256.375 5.31467 256.695 5.98667 256.737 6.84H255.281C255.249 6.38133 255.063 6.01333 254.721 5.736C254.391 5.45867 253.943 5.32 253.377 5.32C252.855 5.32 252.439 5.432 252.129 5.656C251.82 5.88 251.665 6.17333 251.665 6.536C251.665 6.824 251.756 7.064 251.937 7.256C252.129 7.43733 252.364 7.58667 252.641 7.704C252.929 7.81067 253.324 7.93333 253.825 8.072C254.455 8.24267 254.967 8.41333 255.361 8.584C255.756 8.744 256.092 8.98933 256.369 9.32C256.657 9.65067 256.807 10.0827 256.817 10.616C256.817 11.096 256.684 11.528 256.417 11.912C256.151 12.296 255.772 12.6 255.281 12.824C254.801 13.0373 254.247 13.144 253.617 13.144ZM264.594 5.656C264.85 5.15467 265.213 4.76533 265.682 4.488C266.162 4.21067 266.744 4.072 267.426 4.072V5.576H267.042C265.41 5.576 264.594 6.46133 264.594 8.232V13H263.138V4.232H264.594V5.656ZM277.107 8.28C277.107 8.55733 277.091 8.85067 277.059 9.16H270.051C270.104 10.024 270.398 10.7013 270.931 11.192C271.475 11.672 272.131 11.912 272.899 11.912C273.528 11.912 274.051 11.768 274.467 11.48C274.894 11.1813 275.192 10.7867 275.363 10.296H276.931C276.696 11.1387 276.227 11.8267 275.523 12.36C274.819 12.8827 273.944 13.144 272.899 13.144C272.067 13.144 271.32 12.9573 270.659 12.584C270.008 12.2107 269.496 11.6827 269.123 11C268.75 10.3067 268.563 9.50667 268.563 8.6C268.563 7.69333 268.744 6.89867 269.107 6.216C269.47 5.53333 269.976 5.01067 270.627 4.648C271.288 4.27467 272.046 4.088 272.899 4.088C273.731 4.088 274.467 4.26933 275.107 4.632C275.747 4.99467 276.238 5.496 276.579 6.136C276.931 6.76533 277.107 7.48 277.107 8.28ZM275.603 7.976C275.603 7.42133 275.48 6.94667 275.235 6.552C274.99 6.14667 274.654 5.84267 274.227 5.64C273.811 5.42667 273.347 5.32 272.835 5.32C272.099 5.32 271.47 5.55467 270.947 6.024C270.435 6.49333 270.142 7.144 270.067 7.976H275.603ZM282.133 13.144C281.461 13.144 280.858 13.032 280.325 12.808C279.792 12.5733 279.37 12.2533 279.061 11.848C278.752 11.432 278.581 10.9573 278.549 10.424H280.053C280.096 10.8613 280.298 11.2187 280.661 11.496C281.034 11.7733 281.52 11.912 282.117 11.912C282.672 11.912 283.109 11.7893 283.429 11.544C283.749 11.2987 283.909 10.9893 283.909 10.616C283.909 10.232 283.738 9.94933 283.397 9.768C283.056 9.576 282.528 9.38933 281.813 9.208C281.162 9.03733 280.629 8.86667 280.213 8.696C279.808 8.51467 279.456 8.25333 279.157 7.912C278.869 7.56 278.725 7.10133 278.725 6.536C278.725 6.088 278.858 5.67733 279.125 5.304C279.392 4.93067 279.77 4.63733 280.261 4.424C280.752 4.2 281.312 4.088 281.941 4.088C282.912 4.088 283.696 4.33333 284.293 4.824C284.89 5.31467 285.21 5.98667 285.253 6.84H283.797C283.765 6.38133 283.578 6.01333 283.237 5.736C282.906 5.45867 282.458 5.32 281.893 5.32C281.37 5.32 280.954 5.432 280.645 5.656C280.336 5.88 280.181 6.17333 280.181 6.536C280.181 6.824 280.272 7.064 280.453 7.256C280.645 7.43733 280.88 7.58667 281.157 7.704C281.445 7.81067 281.84 7.93333 282.341 8.072C282.97 8.24267 283.482 8.41333 283.877 8.584C284.272 8.744 284.608 8.98933 284.885 9.32C285.173 9.65067 285.322 10.0827 285.333 10.616C285.333 11.096 285.2 11.528 284.933 11.912C284.666 12.296 284.288 12.6 283.797 12.824C283.317 13.0373 282.762 13.144 282.133 13.144ZM295.388 8.28C295.388 8.55733 295.372 8.85067 295.34 9.16H288.332C288.386 10.024 288.679 10.7013 289.212 11.192C289.756 11.672 290.412 11.912 291.18 11.912C291.81 11.912 292.332 11.768 292.748 11.48C293.175 11.1813 293.474 10.7867 293.644 10.296H295.212C294.978 11.1387 294.508 11.8267 293.804 12.36C293.1 12.8827 292.226 13.144 291.18 13.144C290.348 13.144 289.602 12.9573 288.94 12.584C288.29 12.2107 287.778 11.6827 287.404 11C287.031 10.3067 286.844 9.50667 286.844 8.6C286.844 7.69333 287.026 6.89867 287.388 6.216C287.751 5.53333 288.258 5.01067 288.908 4.648C289.57 4.27467 290.327 4.088 291.18 4.088C292.012 4.088 292.748 4.26933 293.388 4.632C294.028 4.99467 294.519 5.496 294.86 6.136C295.212 6.76533 295.388 7.48 295.388 8.28ZM293.884 7.976C293.884 7.42133 293.762 6.94667 293.516 6.552C293.271 6.14667 292.935 5.84267 292.508 5.64C292.092 5.42667 291.628 5.32 291.116 5.32C290.38 5.32 289.751 5.55467 289.228 6.024C288.716 6.49333 288.423 7.144 288.348 7.976H293.884ZM298.766 5.656C299.022 5.15467 299.385 4.76533 299.854 4.488C300.334 4.21067 300.915 4.072 301.598 4.072V5.576H301.214C299.582 5.576 298.766 6.46133 298.766 8.232V13H297.31V4.232H298.766V5.656ZM306.543 11.656L309.263 4.232H310.815L307.375 13H305.679L302.239 4.232H303.807L306.543 11.656ZM320.248 8.28C320.248 8.55733 320.232 8.85067 320.2 9.16H313.192C313.245 10.024 313.538 10.7013 314.072 11.192C314.616 11.672 315.272 11.912 316.04 11.912C316.669 11.912 317.192 11.768 317.608 11.48C318.034 11.1813 318.333 10.7867 318.504 10.296H320.072C319.837 11.1387 319.368 11.8267 318.664 12.36C317.96 12.8827 317.085 13.144 316.04 13.144C315.208 13.144 314.461 12.9573 313.8 12.584C313.149 12.2107 312.637 11.6827 312.264 11C311.89 10.3067 311.704 9.50667 311.704 8.6C311.704 7.69333 311.885 6.89867 312.248 6.216C312.61 5.53333 313.117 5.01067 313.768 4.648C314.429 4.27467 315.186 4.088 316.04 4.088C316.872 4.088 317.608 4.26933 318.248 4.632C318.888 4.99467 319.378 5.496 319.72 6.136C320.072 6.76533 320.248 7.48 320.248 8.28ZM318.744 7.976C318.744 7.42133 318.621 6.94667 318.376 6.552C318.13 6.14667 317.794 5.84267 317.368 5.64C316.952 5.42667 316.488 5.32 315.976 5.32C315.24 5.32 314.61 5.55467 314.088 6.024C313.576 6.49333 313.282 7.144 313.208 7.976H318.744ZM321.626 8.584C321.626 7.688 321.807 6.904 322.17 6.232C322.532 5.54933 323.028 5.02133 323.658 4.648C324.298 4.27467 325.012 4.088 325.802 4.088C326.484 4.088 327.119 4.248 327.706 4.568C328.292 4.87733 328.74 5.288 329.05 5.8V1.16H330.522V13H329.05V11.352C328.762 11.8747 328.335 12.3067 327.77 12.648C327.204 12.9787 326.543 13.144 325.786 13.144C325.007 13.144 324.298 12.952 323.658 12.568C323.028 12.184 322.532 11.6453 322.17 10.952C321.807 10.2587 321.626 9.46933 321.626 8.584ZM329.05 8.6C329.05 7.93867 328.916 7.36267 328.65 6.872C328.383 6.38133 328.02 6.008 327.562 5.752C327.114 5.48533 326.618 5.352 326.074 5.352C325.53 5.352 325.034 5.48 324.586 5.736C324.138 5.992 323.78 6.36533 323.514 6.856C323.247 7.34667 323.114 7.92267 323.114 8.584C323.114 9.256 323.247 9.84267 323.514 10.344C323.78 10.8347 324.138 11.2133 324.586 11.48C325.034 11.736 325.53 11.864 326.074 11.864C326.618 11.864 327.114 11.736 327.562 11.48C328.02 11.2133 328.383 10.8347 328.65 10.344C328.916 9.84267 329.05 9.26133 329.05 8.6Z" fill="white" fill-opacity="0.56"/>
</svg>
